<svg width="95" height="95" viewBox="0 0 95 95" fill="none" xmlns="http://www.w3.org/2000/svg">
<path d="M56.9141 6.45219V15.5036C56.9141 21.9398 55.4385 28.0378 52.8024 33.467C52.5033 34.0919 52.1802 34.7129 51.8492 35.3139C51.5381 35.8831 51.2191 36.4324 50.8801 36.9817C49.7355 38.8525 48.4474 40.6277 47.0276 42.2836C46.6128 42.7731 46.1861 43.2548 45.7395 43.7244C45.2928 44.1981 44.8381 44.6638 44.3675 45.1176C36.9138 52.3459 26.7442 56.8 15.5296 56.8H6.4647C2.89536 56.804 0 53.9102 0 50.3478C0 48.5686 0.725833 46.9525 1.89434 45.7823C3.06286 44.6161 4.68202 43.8916 6.46869 43.8916H33.6396C34.7243 43.8916 35.7692 43.7244 36.7543 43.418C37.52 43.1752 38.2458 42.8488 38.9198 42.4428C39.4981 42.1005 40.0405 41.7064 40.543 41.2487C42.3735 39.6167 43.6138 37.3399 43.9089 34.7766C43.9568 34.3785 43.9807 33.9765 43.9807 33.5705V6.45219C43.9807 2.88975 46.8761 0 50.4454 0C54.0147 0 56.9141 2.88975 56.9141 6.45219Z" fill="white"/>
<path d="M94.4859 43.9554C94.4859 45.7346 93.7601 47.3506 92.5916 48.5209C91.4231 49.6871 89.8039 50.4115 88.0172 50.4115H60.8464C59.7616 50.4115 58.7167 50.5787 57.7317 50.8852C56.9659 51.128 56.2401 51.4544 55.5661 51.8604C54.9879 52.2027 54.4455 52.5968 53.943 53.0545C52.1124 54.6865 50.8721 56.9672 50.577 59.5346C50.5292 59.9286 50.5052 60.3306 50.5052 60.7366V87.855C50.5052 91.4214 47.6139 94.3071 44.0405 94.3071C40.4712 94.3071 37.5758 91.4214 37.5758 87.855V78.8036C37.5758 72.3673 39.0514 66.2733 41.6876 60.8441C41.9867 60.2152 42.3097 59.5983 42.6447 58.9893C42.9518 58.4201 43.2748 57.8708 43.6058 57.3215C44.7504 55.4507 46.0386 53.6755 47.4583 52.0196C47.8731 51.53 48.2998 51.0484 48.7465 50.5787C49.1932 50.1051 49.6478 49.6393 50.1184 49.1816C57.5721 41.9532 67.7418 37.5032 78.9563 37.5032H88.0252C91.5946 37.4992 94.4859 40.3929 94.4859 43.9554Z" fill="white"/>
<path d="M34.4212 34.3546C33.0294 35.7438 30.8718 36.0224 29.1689 35.0313C24.0442 32.046 19.3263 28.4159 15.1308 24.2246L13.7908 22.8872C11.2664 20.3676 11.2664 16.2797 13.7908 13.7602C16.3153 11.2406 20.4111 11.2406 22.9355 13.7602L24.2755 15.0976C28.471 19.2849 32.1082 23.9937 35.1032 29.1085C36.0923 30.8081 35.8131 32.9615 34.4212 34.3546Z" fill="white"/>
<path d="M60.0128 59.8967C61.4047 58.5076 63.5623 58.2289 65.2652 59.2201C70.3899 62.2053 75.1078 65.8354 79.3033 70.0268L80.6433 71.3642C83.1677 73.8838 83.1677 77.9716 80.6433 80.4912C78.1188 83.0108 74.023 83.0108 71.4986 80.4912L70.1586 79.1538C65.9631 74.9664 62.3259 70.2576 59.3309 65.1429C58.3418 63.4393 58.617 61.2859 60.0128 59.8967Z" fill="white"/>
</svg>
