<svg width="32" height="32" viewBox="0 0 32 32" fill="none" xmlns="http://www.w3.org/2000/svg">
<g clip-path="url(#clip0_4946_1548)">
<path d="M26.7443 17.6167C26.6007 16.6479 26.2777 15.751 25.7394 14.9616C25.4882 14.6028 25.2011 14.244 24.8782 13.9211C22.402 11.4454 18.4186 11.3737 15.8706 13.7417C15.2605 13.1676 14.5428 12.7371 13.7892 12.4501C13.3226 12.2707 12.8561 12.163 12.3896 12.0913C12.1025 12.0554 11.7795 12.0195 11.4924 12.0195C9.76986 12.0195 8.11908 12.7012 6.89893 13.9211C5.39169 15.428 4.78161 17.4732 5.0687 19.4106C5.21225 20.3435 5.53523 21.2405 6.07353 22.0657C6.32474 22.4245 6.61183 22.7833 6.89893 23.1062L15.9065 32.1119L17.7367 30.2821L8.72915 21.2764C8.40617 20.9535 8.15496 20.5588 7.93964 20.1641C7.43723 19.0877 7.43723 17.8678 7.93964 16.7915C8.11907 16.3968 8.37028 16.038 8.69326 15.7151C9.01624 15.3922 9.37511 15.141 9.76986 14.9616C10.3082 14.7105 10.8824 14.5669 11.4565 14.5669C12.0307 14.5669 12.6049 14.7104 13.1073 14.9257C13.5021 15.1051 13.8968 15.3922 14.2198 15.7151L19.6028 21.0611L20.5359 20.1282C21.0383 19.6259 21.0383 18.8007 20.5359 18.2984L17.7367 15.4998C19.2798 14.1723 21.6125 14.244 23.0838 15.6792C23.4068 16.0021 23.658 16.3609 23.8733 16.7915C24.1245 17.2938 24.2322 17.8678 24.2322 18.4778C24.2322 19.4465 23.9092 20.3435 23.2633 21.0252C23.1915 21.097 23.1197 21.1687 23.0838 21.2405L21.4689 22.8551L19.6028 24.7567L17.7726 22.9268L12.3896 17.5808C11.8872 17.0785 11.0618 17.0785 10.5594 17.5808C10.057 18.0831 10.057 18.9083 10.5594 19.4106L19.6028 28.4164L24.9141 23.1062C26.1342 21.8863 26.816 20.2359 26.816 18.5137C26.816 18.1907 26.7802 17.9037 26.7443 17.6167Z" fill="currentColor"/>
<path d="M21.0024 7.0324C20.7512 7.78586 20.3564 8.43169 19.854 8.96988C18.8851 10.0104 17.4855 10.6562 15.9423 10.6562C14.3992 10.6562 12.9996 10.0104 12.0307 8.96988C11.5283 8.43169 11.1335 7.74999 10.8823 7.0324C10.5952 6.20717 11.2412 5.34607 12.1025 5.34607C12.5331 5.34607 12.9637 5.56135 13.1791 5.92014C13.2508 6.02778 13.2867 6.09954 13.3226 6.20717C13.4303 6.49421 13.5738 6.78124 13.7891 7.0324C14.2916 7.67823 15.0811 8.0729 15.9423 8.0729C16.8036 8.0729 17.5931 7.67823 18.0955 7.0324C18.275 6.78124 18.4544 6.49421 18.5621 6.20717C18.598 6.09954 18.6338 5.9919 18.7056 5.92014C18.9568 5.56135 19.3516 5.34607 19.7822 5.34607C20.6435 5.34607 21.2536 6.20717 21.0024 7.0324Z" fill="currentColor"/>
<path d="M19.7463 5.34601C19.3157 5.34601 18.885 5.56128 18.6697 5.92008C18.5979 6.02772 18.562 6.09947 18.5262 6.20711C18.4185 6.49415 18.2749 6.78118 18.0596 7.03234C17.5572 7.67816 16.7677 8.07284 15.9064 8.07284C15.0451 8.07284 14.2556 7.67816 13.7532 7.03234C13.5738 6.78118 13.3943 6.49415 13.2867 6.20711C13.2508 6.09947 13.2149 5.99184 13.1431 5.92008C12.8919 5.56128 12.4972 5.34601 12.0665 5.34601C11.2053 5.34601 10.5593 6.20711 10.8464 7.03234C11.0976 7.74992 11.4924 8.43163 11.9948 8.96982C12.9637 10.0103 14.3633 10.6561 15.9064 10.6561C17.4495 10.6561 18.8491 10.0103 19.8181 8.96982C20.3205 8.43163 20.7152 7.74992 20.9664 7.03234C21.2535 6.20711 20.6435 5.34601 19.7463 5.34601Z" fill="currentColor"/>
<path d="M13.1431 5.92008V8.96982H11.9948C11.4924 8.43163 11.0976 7.74992 10.8464 7.03234C10.5593 6.20711 11.2053 5.34601 12.0665 5.34601C12.4972 5.34601 12.9278 5.56128 13.1431 5.92008Z" fill="currentColor"/>
<path d="M21.1815 4.48492C20.7508 4.19788 20.2484 4.05436 19.746 4.05436C19.2795 4.05436 18.8488 4.162 18.49 4.37728C18.0952 3.33678 17.0904 2.58331 15.9061 2.58331C14.7219 2.58331 13.717 3.33678 13.3223 4.37728C12.9275 4.162 12.4969 4.05436 12.0662 4.05436C11.5638 4.05436 11.0614 4.19788 10.6308 4.48492C11.0614 1.93748 13.2505 0 15.9061 0C18.5617 0 20.7867 1.93748 21.1815 4.48492Z" fill="currentColor"/>
<path d="M21.0019 7.03234C20.7507 7.7858 20.356 8.43163 19.8535 8.96982H18.7052V5.92008C18.9564 5.56128 19.3511 5.34601 19.7818 5.34601C20.6431 5.34601 21.2531 6.20711 21.0019 7.03234Z" fill="currentColor"/>
</g>
<defs>
<clipPath id="clip0_4946_1548">
<rect width="32" height="32" rx="8" fill="currentColor"/>
</clipPath>
</defs>
</svg>

