<svg width="85" height="73" viewBox="0 0 85 73" fill="none" xmlns="http://www.w3.org/2000/svg">
<path d="M84.5021 26.424C82.5089 18.8017 74.7022 14.2283 67.2276 16.2609C63.5734 17.2772 60.5836 19.6486 58.5904 22.8669L42.6448 50.9848C42.4787 51.1542 42.4787 51.493 42.3126 51.6624L36.6652 61.6561C36.6652 61.6561 36.6652 61.6561 36.6652 61.8255V61.6561C36.6652 61.6561 36.6652 61.8255 36.4991 61.8255C34.3398 65.3826 29.8551 66.3989 26.533 64.1969C25.5364 63.5193 24.7059 62.6724 24.0415 61.6561L8.0959 33.5382C6.10269 29.9811 7.26539 25.4077 10.7535 23.5444C14.2416 21.5118 18.5602 22.6975 20.5534 26.2546L36.0008 53.5256L39.9872 46.5808L26.533 22.8669C22.5466 16.0915 13.9094 13.7201 7.0993 17.616C0.289181 21.5118 -2.03622 30.3198 1.95019 37.2646L17.8958 65.3826C21.8822 72.3274 30.5195 74.5294 37.1635 70.6335C39.655 69.109 41.6482 66.9071 42.8109 64.3663L48.2922 54.7113C48.2922 54.7113 48.2922 54.5419 48.4583 54.5419L64.4039 26.424C66.3971 22.8669 70.8819 21.6812 74.37 23.7138C77.8581 25.7464 79.0208 30.3198 77.0276 33.7076L61.0819 61.8255C59.0887 65.3826 54.604 66.5683 51.1159 64.5357C50.2854 64.0275 49.621 63.5193 48.9566 62.6724L45.4685 68.9397C51.282 74.1906 60.2514 73.5131 65.4005 67.5846C66.0649 66.907 66.5632 66.0601 67.0615 65.3826L83.0072 37.2646C85.0004 34.0463 85.4987 30.1505 84.5021 26.424Z" fill="white"/>
<path d="M42.4789 24.0527C48.9568 24.0527 54.272 18.6324 54.272 12.0263C54.272 5.42032 48.9568 0 42.4789 0C36.001 0 30.6857 5.42032 30.6857 12.0263C30.6857 18.6324 36.001 24.0527 42.4789 24.0527ZM42.4789 7.28356C45.1365 7.28356 47.2958 9.48557 47.2958 12.1957C47.2958 14.9059 45.1365 17.1079 42.4789 17.1079C39.8213 17.1079 37.662 14.9059 37.662 12.1957C37.662 9.48557 39.8213 7.28356 42.4789 7.28356Z" fill="white"/>
</svg>

